PathFileType	4	(X/Y/Z)	C:\Users\Biomechanik\SynologyDrive\AlexP\Athlete_03\Athlete_3_25_03_31\Walking_09\marker_experimental.trc
DataRate	CameraRate	NumFrames	NumMarkers	Units	OrigDataRate	OrigDataStartFrame	OrigNumFrames
200.000000	200.000000	4	53	mm	200.000000	111	222
Frame#	Time	GLAB			RFHD			LFHD			C7			T6			SPINMOL			SPINM2			SPINM3			T12			BELTOL			BELT2			BELT3			SACROL			SACR2			SACR3			LTHOL			LTH2			LTH3			LSHAOL			LSHA2			LSHA3			LHEE			LTOE			LM5			RTH2			RTH3			RSHAOL			RSHA2			RSHA3			RHEE			RTOE			RM5			STRN			XIPH			LACR			LUAOL			LUA2			LUA3			LLAOL			LLA2			LLA3			LWRR			LWRU			RACR			RUAOL			RUA2			RUA3			RLAOL			RLA2			RLA3			RWRR			RWRU			RTHOL			
		X1	Y1	Z1	X2	Y2	Z2	X3	Y3	Z3	X4	Y4	Z4	X5	Y5	Z5	X6	Y6	Z6	X7	Y7	Z7	X8	Y8	Z8	X9	Y9	Z9	X10	Y10	Z10	X11	Y11	Z11	X12	Y12	Z12	X13	Y13	Z13	X14	Y14	Z14	X15	Y15	Z15	X16	Y16	Z16	X17	Y17	Z17	X18	Y18	Z18	X19	Y19	Z19	X20	Y20	Z20	X21	Y21	Z21	X22	Y22	Z22	X23	Y23	Z23	X24	Y24	Z24	X25	Y25	Z25	X26	Y26	Z26	X27	Y27	Z27	X28	Y28	Z28	X29	Y29	Z29	X30	Y30	Z30	X31	Y31	Z31	X32	Y32	Z32	X33	Y33	Z33	X34	Y34	Z34	X35	Y35	Z35	X36	Y36	Z36	X37	Y37	Z37	X38	Y38	Z38	X39	Y39	Z39	X40	Y40	Z40	X41	Y41	Z41	X42	Y42	Z42	X43	Y43	Z43	X44	Y44	Z44	X45	Y45	Z45	X46	Y46	Z46	X47	Y47	Z47	X48	Y48	Z48	X49	Y49	Z49	X50	Y50	Z50	X51	Y51	Z51	X52	Y52	Z52	X53	Y53	Z53	

112	0.555	297.5476074218748	1563.844604492188	229.3693389892579	249.7357177734374	1594.224243164062	293.6601867675782	252.7311401367186	1582.102783203125	155.7570037841797	71.45735168457018	1406.928588867188	238.6586303710938	9.432744026183961	1240.950439453125	240.2524261474609	0.2717589139937216	1200.753540039062	219.3429260253906	-5.747833251953248	1193.65185546875	268.9159545898438	2.672283887863046	1136.428833007812	235.2026214599609	24.17589950561513	1068.610961914062	236.2643127441406	-11.0116138458253	1030.587280273438	214.4638061523438	-15.17086124420177	1030.250366210938	265.4816284179688	-17.53082084655772	968.8829345703125	236.9144744873047	3.376036405563259	925.4348754882812	207.0792999267578	-3.693430185318098	927.20458984375	258.8012390136719	-18.92359924316416	867.85009765625	231.9844818115234	196.0260925292968	638.4058227539062	55.20939636230472	174.3757324218749	568.5146484375	83.81242370605472	219.5426940917968	583.7968139648438	69.33003234863286	325.6361694335938	307.478515625	59.79267883300787	309.3972473144531	231.279525756836	74.97389984130865	353.5148620605469	252.3612518310547	64.7777175903321	383.9689636230469	49.42399597167971	145.5052490234376	592.7396850585938	117.0947570800782	136.718719482422	561.4630737304688	74.38777160644534	44.68976211547862	31.62704086303699	622.3181762695312	442.251220703125	-10.74305438995373	632.2605590820312	417.1750183105469	-142.8645782470704	372.9068603515625	415.302978515625	-142.4893493652345	293.8604125976562	411.8429565429688	-179.9923248291017	325.0899658203125	400.8337097167968	-302.0753173828126	143.1002807617187	295.5871582031249	-124.9068298339844	41.94876861572265	300.9335327148438	-169.0907135009766	42.42456436157226	406.2792968749999	236.9551696777342	1297.631469726562	234.2778015136719	248.8828887939452	1153.818481445312	240.4977569580079	139.9791259765624	1362.898681640625	60.65675735473636	95.13935852050774	1209.561645507812	-35.437198638916	66.77216339111322	1151.505615234375	-50.14499664306639	116.1513900756835	1147.211791992188	-37.78723907470701	46.93146133422847	954.4893188476562	-82.0844039916992	-5.047333717346236	899.2512817382812	-58.73041915893555	36.54687881469722	893.903076171875	-86.13252258300781	28.1306343078613	790.8128051757812	-97.40373229980469	82.39940643310544	773.8448486328125	-43.4260902404785	162.3204345703123	1362.233032226562	403.7266235351563	167.4577636718748	1221.9541015625	508.2232055664063	201.2569732666014	1165.409912109375	517.3453369140625	152.9359893798826	1163.471069335938	535.4155883789062	269.1216430664061	965.8746337890625	559.0158081054688	348.6083984374998	957.6551513671875	561.3989868164064	314.0933837890623	924.3535766601562	547.7192993164064	393.4609985351561	881.5057983398438	534.6651000976564	416.8705139160155	904.6026611328125	459.6134948730469	-1.469036459922911	692.231201171875	425.7710571289062	
113	0.5600000000000001	304.8970336914061	1563.850830078125	227.7058563232422	257.0706176757811	1594.250732421875	291.9812011718751	260.0921020507811	1582.084594726562	154.0791473388672	78.93991851806628	1406.69873046875	236.9766387939453	17.22563171386707	1240.63427734375	238.8368682861328	8.139736175536996	1200.410888671875	217.9520721435547	2.214117288589355	1193.30908203125	267.5204772949219	10.61123752593983	1136.125122070312	233.887451171875	32.29738235473622	1068.348876953125	234.9447784423828	-2.621175289154155	1030.3330078125	213.1580047607422	-6.689676284790151	1029.9296875	264.1401672363281	-9.061452865600687	968.6131591796875	235.5768585205078	11.55214309692373	925.2181396484375	205.8572845458984	4.527306556701556	926.84619140625	257.5670166015625	-10.44048976898203	867.4758911132812	230.6608581542969	205.2976684570312	639.1296997070312	53.95659255981449	183.1962280273437	568.9573974609375	81.63236999511722	228.6165466308593	584.382080078125	67.9495010375977	332.0386657714844	307.2553405761719	59.34295654296881	314.7745361328125	231.3271026611328	74.56221008300787	359.141845703125	251.7848205566407	64.51818847656257	385.8147888183594	49.48063278198244	145.7409973144532	595.9281616210938	112.2347488403321	137.0002288818361	563.5327758789062	70.41957855224612	45.00865554809581	39.85981369018543	622.1576538085938	441.5473022460938	-2.415652751922722	632.0044555664062	416.276123046875	-136.0061187744142	374.3406982421875	415.3602600097656	-136.7996063232423	295.3013610839844	411.9082641601562	-173.8072967529298	327.0757751464844	400.8399658203124	-298.3563537597657	147.4309997558593	296.0156860351562	-124.9290161132813	41.68623352050781	300.900390625	-168.1621551513673	42.8828010559082	406.4189147949218	244.6257019042967	1297.722778320312	232.6766204833985	256.908477783203	1153.975219726562	239.0243072509766	147.3446960449218	1362.537963867188	59.00508499145511	102.6753616333007	1208.918334960938	-36.76794433593748	74.41010284423822	1150.791381835938	-51.36346054077147	123.8110046386718	1146.605346679688	-39.0453414916992	55.00823974609371	953.6134033203125	-82.89554595947264	3.029144287109331	898.3812866210938	-59.52721786499023	44.69251251220699	893.008544921875	-86.79907989501952	36.43659210205075	789.87744140625	-97.81222534179688	90.5036697387695	773.1044921875	-43.55240249633788	169.8194122314451	1362.26953125	402.1501464843751	174.6617889404295	1221.860717773438	506.5969848632813	208.2733154296873	1165.1962890625	515.7543334960938	159.922653198242	1163.397827148438	533.7257080078125	275.2816467285155	965.3181762695312	557.5537719726562	354.6824645996092	956.625732421875	560.3320922851564	320.0611877441405	923.5424194335938	546.4572753906251	399.276397705078	880.2686767578125	533.8146972656251	423.0357666015624	903.1544799804688	458.7692871093751	6.817359924316285	691.9783325195312	424.7428588867188	
114	0.5650000000000001	312.2450866699217	1563.959716796875	226.0499725341797	264.3971862792967	1594.371459960938	290.3077087402344	267.4584655761718	1582.174926757812	152.4070281982422	86.43337249755847	1406.55078125	235.2647247314453	25.04745292663562	1240.39599609375	237.3867034912109	16.03782272338856	1200.147216796875	216.5292816162109	10.19342422485339	1193.048217773438	266.0955200195312	18.59155273437489	1135.899169921875	232.5372619628906	40.44446182250966	1068.175048828125	233.6129760742188	5.845664501190083	1030.1787109375	211.8810119628906	1.886202096938976	1029.703002929688	262.8251953125	-0.5106612443924974	968.4425659179688	234.2658538818359	19.74779510498037	925.079345703125	204.6501770019531	12.78750228881825	926.547607421875	256.3450012207031	-1.885106205940342	867.1595458984375	229.3439788818359	214.3736724853515	639.9224853515625	52.73474121093754	191.8475646972656	569.497802734375	79.55532836914065	237.4951782226562	585.0338134765625	66.59506225585942	338.4707946777344	307.2088928222656	58.74543762207038	320.1622924804688	231.5572967529297	73.91361999511724	364.7775573730469	251.3866119384766	64.11663818359382	387.4469909667969	49.7138252258301	145.8516540527345	598.8980102539062	107.3590469360352	137.2613372802736	565.395263671875	66.44350433349612	45.29762649536143	48.32140350341786	621.969970703125	440.8158569335938	6.141284465789679	631.6875	415.3405456542969	-128.8221282958986	375.7845153808594	415.4148864746094	-130.8085174560548	296.771240234375	411.9903564453125	-167.292205810547	329.0895080566406	400.8278503417968	-294.2301025390626	151.9212036132812	296.3975524902343	-124.9100646972657	41.43062591552734	300.8598327636719	-167.1707000732423	43.41411972045898	406.5379638671874	252.3122711181639	1297.91943359375	231.0556030273438	264.9646606445311	1154.23974609375	237.5250244140626	154.7261352539062	1362.25439453125	57.32941436767581	110.2587127685546	1208.33837890625	-38.11787414550779	82.10743713378901	1150.135986328125	-52.60248565673827	131.5296020507812	1146.067016601562	-40.31867218017576	63.2011337280273	952.7813110351562	-83.71677398681639	11.23334598541255	897.54345703125	-60.34081268310547	52.97277069091793	892.1567993164062	-87.47067260742186	44.91074371337888	788.980224609375	-98.2138214111328	98.77070617675778	772.4288940429688	-43.66017532348631	177.3163757324217	1362.386474609375	400.5588073730469	181.8350677490233	1221.8369140625	504.9562072753907	215.2473907470701	1165.046142578125	514.154296875	166.8649597167967	1163.399291992188	532.0228271484375	281.326934814453	964.79541015625	556.0899658203125	360.630157470703	955.5889892578125	559.2849731445314	325.8898010253905	922.7392578125	545.2089233398439	404.9339904785155	879.0037841796875	532.9984741210939	429.0563354492186	901.63330078125	457.9629821777344	15.28075027465808	691.6785278320312	423.6689147949219	
115	0.5700000000000001	319.5907592773436	1564.171875	224.4042205810547	271.7142944335936	1594.587158203125	288.6421508789063	274.8295593261718	1582.374755859375	150.743148803711	93.93717956542956	1406.487670898438	233.5267181396485	32.89534759521472	1240.236938476562	235.9059906005859	23.96198844909657	1199.965087890625	215.07958984375	18.18525123596179	1192.873046875	264.6459045410156	26.60766029357899	1135.753295898438	231.1579437255859	48.60694503784169	1068.09326171875	232.2794036865234	14.37236213684072	1030.133911132812	210.6435089111328	10.53918647766102	1029.581176757812	261.5480041503906	8.102601051330465	968.3809204101562	232.9926605224609	27.9542293548583	925.0224609375	203.4671173095703	21.08053588867177	926.3115844726562	255.1441802978516	6.728481769561673	866.9071044921875	228.0412445068359	223.2270812988281	640.7822265625	51.54355239868168	200.3086700439453	570.1354370117188	77.58836364746098	246.156005859375	585.7533569335938	65.26748657226567	344.9420471191406	307.3477783203125	57.98760604858405	325.5719604492188	231.9800720214844	73.01174163818365	370.4323120117188	251.177734375	63.5610427856446	388.9059448242188	50.10851287841799	145.8395385742188	601.6605834960938	102.5359802246094	137.5015411376954	567.0806884765625	62.51493072509769	45.55295944213878	57.01353836059559	621.7507934570312	440.0644226074219	14.9296131134032	631.3024291992188	414.3754577636719	-121.296371459961	377.2332763671875	415.4689636230469	-124.4986648559571	298.2662048339844	412.0922241210938	-160.4285736083986	331.1255798339844	400.7975463867187	-289.6665039062501	156.5709075927734	296.7264404296874	-124.8271179199219	41.19246292114257	300.8090515136719	-166.1075744628907	44.03577041625976	406.6316833496093	260.0106811523436	1298.223999023438	229.4171600341797	273.0436401367186	1154.612426757812	236.0016021728516	162.1231079101562	1362.051513671875	55.63304138183597	117.8922882080078	1207.826293945312	-39.48556518554685	89.8674697875976	1149.544067382812	-53.86169052124022	139.3094482421874	1145.601318359375	-41.6031799316406	71.50977325439449	951.9990844726562	-84.54608917236327	19.56494331359859	896.7439575195312	-61.1692886352539	61.38691711425777	891.3541259765625	-88.14587402343749	53.55115890502927	788.1277465820312	-98.60824584960936	107.199722290039	771.8240966796875	-43.75089263916013	184.8085021972655	1362.586303710938	398.9565734863282	188.9764099121092	1221.884765625	503.3026123046876	222.1791992187498	1164.963012695312	512.546142578125	173.763458251953	1163.476684570312	530.3089599609375	287.2583618164061	964.3099975585938	554.6256713867188	366.4524536132811	954.5501098632812	558.2579345703126	331.5800476074217	921.9489135742188	543.9761352539064	410.4341430664061	877.7171020507812	532.2178344726564	434.9311218261718	900.0433959960938	457.1963195800782	23.92000198364246	691.3252563476562	422.5535278320312	
